HIERARCHY
ROOT Hips
{
	OFFSET 0.000000 87.230942 0.000000
	CHANNELS 6 Xposition Yposition Zposition Xrotation Yrotation Zrotation
	JOINT Pelvis
	{
		OFFSET 0.000000 0.000000 0.000000
		CHANNELS 3 Xrotation Yrotation Zrotation
		JOINT LeftUpLeg
		{
			OFFSET 12.017000 -9.376404 -2.439400
			CHANNELS 3 Xrotation Yrotation Zrotation
			JOINT LeftLeg
			{
				OFFSET -0.007312 -32.846973 2.110600
				CHANNELS 3 Xrotation Yrotation Zrotation
				JOINT LeftFoot
				{
					OFFSET 0.007312 -32.065170 -0.570400
					CHANNELS 3 Xrotation Yrotation Zrotation
					JOINT LeftToeBase
					{
						OFFSET 0.728300 -11.045900 13.180700
						CHANNELS 3 Xrotation Yrotation Zrotation
						End Site
						{
							OFFSET 0.000000 17.212589 0.000000
						}
					}
				}
				JOINT LeftPantLeg
				{
					OFFSET 0.002788 -16.709013 -3.143600
					CHANNELS 3 Xrotation Yrotation Zrotation
					End Site
					{
						OFFSET -0.605125 24.528742 0.000000
					}
				}
			}
			JOINT Left_Butt
			{
				OFFSET -6.630234 1.326584 -3.183700
				CHANNELS 3 Xrotation Yrotation Zrotation
				End Site
				{
					OFFSET -0.498041 20.188049 0.000000
				}
			}
		}
		JOINT RightUpLeg
		{
			OFFSET -11.717000 -9.376404 -2.439400
			CHANNELS 3 Xrotation Yrotation Zrotation
			JOINT RightLeg
			{
				OFFSET -0.003241 -32.846912 2.110600
				CHANNELS 3 Xrotation Yrotation Zrotation
				JOINT RightFoot
				{
					OFFSET 0.003241 -32.065136 -0.570500
					CHANNELS 3 Xrotation Yrotation Zrotation
					JOINT RightToeBase
					{
						OFFSET -0.728300 -11.045901 13.180700
						CHANNELS 3 Xrotation Yrotation Zrotation
						End Site
						{
							OFFSET 0.000000 17.212593 0.000000
						}
					}
				}
				JOINT RightPantLeg
				{
					OFFSET 0.008142 -16.708982 -3.143700
					CHANNELS 3 Xrotation Yrotation Zrotation
					End Site
					{
						OFFSET 0.605088 24.528715 0.000000
					}
				}
			}
			JOINT Right_Butt
			{
				OFFSET 6.630732 1.326584 -3.183700
				CHANNELS 3 Xrotation Yrotation Zrotation
				End Site
				{
					OFFSET 0.498015 20.188240 0.000000
				}
			}
		}
	}
	JOINT Spine
	{
		OFFSET -0.062400 7.848404 3.918300
		CHANNELS 3 Xrotation Yrotation Zrotation
		JOINT Spine1
		{
			OFFSET -0.072800 11.422302 0.713400
			CHANNELS 3 Xrotation Yrotation Zrotation
			JOINT Spine2
			{
				OFFSET -0.083200 13.054001 -1.931600
				CHANNELS 3 Xrotation Yrotation Zrotation
				JOINT Neck
				{
					OFFSET -0.092200 14.121796 -5.138800
					CHANNELS 3 Xrotation Yrotation Zrotation
					JOINT Head
					{
						OFFSET 0.000200 10.447403 -0.842000
						CHANNELS 3 Xrotation Yrotation Zrotation
						JOINT Visor
						{
							OFFSET 0.457100 25.671204 16.550400
							CHANNELS 3 Xrotation Yrotation Zrotation
							End Site
							{
								OFFSET 0.000000 26.061493 0.000000
							}
						}
						JOINT HairMidA
						{
							OFFSET 0.459400 31.585403 8.437400
							CHANNELS 3 Xrotation Yrotation Zrotation
							End Site
							{
								OFFSET 0.000000 26.061493 0.000000
							}
						}
						JOINT HairMidB
						{
							OFFSET 0.464000 33.309204 -8.389700
							CHANNELS 3 Xrotation Yrotation Zrotation
							End Site
							{
								OFFSET 0.000000 26.061493 0.000000
							}
						}
						JOINT HairMidC
						{
							OFFSET 0.466600 27.991196 -17.375099
							CHANNELS 3 Xrotation Yrotation Zrotation
							End Site
							{
								OFFSET 0.000000 26.061493 0.000000
							}
						}
						JOINT HairMidD
						{
							OFFSET 0.467700 17.888092 -21.169500
							CHANNELS 3 Xrotation Yrotation Zrotation
							End Site
							{
								OFFSET 0.000000 26.061493 0.000000
							}
						}
						JOINT HairMidE
						{
							OFFSET 5.325700 3.514603 -14.369699
							CHANNELS 3 Xrotation Yrotation Zrotation
							End Site
							{
								OFFSET 0.000000 26.061493 0.000000
							}
						}
						JOINT HairMidF
						{
							OFFSET -4.394100 3.514603 -14.372400
							CHANNELS 3 Xrotation Yrotation Zrotation
							End Site
							{
								OFFSET 0.000000 26.061493 0.000000
							}
						}
						JOINT HairLeftA
						{
							OFFSET 15.319900 25.746506 2.623300
							CHANNELS 3 Xrotation Yrotation Zrotation
							End Site
							{
								OFFSET 0.000000 26.061493 0.000000
							}
						}
						JOINT HairLeftB
						{
							OFFSET 12.619500 29.289398 -8.731499
							CHANNELS 3 Xrotation Yrotation Zrotation
							End Site
							{
								OFFSET 0.000000 26.061493 0.000000
							}
						}
						JOINT HairLeftC
						{
							OFFSET 15.714800 15.959900 2.909800
							CHANNELS 3 Xrotation Yrotation Zrotation
							End Site
							{
								OFFSET 0.000000 26.061493 0.000000
							}
						}
						JOINT HairLeftD
						{
							OFFSET 16.101700 18.437408 -7.553200
							CHANNELS 3 Xrotation Yrotation Zrotation
							End Site
							{
								OFFSET 0.000000 26.061493 0.000000
							}
						}
						JOINT HairLeftE
						{
							OFFSET 9.731900 17.915009 -18.316799
							CHANNELS 3 Xrotation Yrotation Zrotation
							End Site
							{
								OFFSET 0.000000 26.061493 0.000000
							}
						}
						JOINT HairLeftF
						{
							OFFSET 11.204300 4.953598 -9.668100
							CHANNELS 3 Xrotation Yrotation Zrotation
							End Site
							{
								OFFSET 0.000000 26.061493 0.000000
							}
						}
						JOINT HairRightA
						{
							OFFSET -14.397900 25.746307 2.615100
							CHANNELS 3 Xrotation Yrotation Zrotation
							End Site
							{
								OFFSET 0.000000 26.061493 0.000000
							}
						}
						JOINT HairRightB
						{
							OFFSET -11.691200 29.289200 -8.738199
							CHANNELS 3 Xrotation Yrotation Zrotation
							End Site
							{
								OFFSET 0.000000 26.061493 0.000000
							}
						}
						JOINT HairRightC
						{
							OFFSET -14.792900 15.959702 2.901400
							CHANNELS 3 Xrotation Yrotation Zrotation
							End Site
							{
								OFFSET 0.000000 26.061493 0.000000
							}
						}
						JOINT HairRightD
						{
							OFFSET -15.174000 18.437195 -7.561900
							CHANNELS 3 Xrotation Yrotation Zrotation
							End Site
							{
								OFFSET 0.000000 26.061493 0.000000
							}
						}
						JOINT HairRightE
						{
							OFFSET -8.798200 17.914902 -18.322001
							CHANNELS 3 Xrotation Yrotation Zrotation
							End Site
							{
								OFFSET 0.000000 26.061493 0.000000
							}
						}
						JOINT HairRightF
						{
							OFFSET -10.275200 4.953506 -9.674099
							CHANNELS 3 Xrotation Yrotation Zrotation
							End Site
							{
								OFFSET 0.000000 26.061493 0.000000
							}
						}
					}
				}
				JOINT LeftShoulder
				{
					OFFSET 5.133500 7.341202 -1.867600
					CHANNELS 3 Xrotation Yrotation Zrotation
					JOINT LeftArm
					{
						OFFSET 8.072663 0.936867 -2.176600
						CHANNELS 3 Xrotation Yrotation Zrotation
						JOINT LeftForeArm
						{
							OFFSET 31.271999 0.000000 0.000000
							CHANNELS 3 Xrotation Yrotation Zrotation
							JOINT LeftHand
							{
								OFFSET 31.771030 0.000000 0.000000
								CHANNELS 3 Xrotation Yrotation Zrotation
								JOINT LeftHandThumb1
								{
									OFFSET 2.886520 -2.557846 4.416640
									CHANNELS 3 Xrotation Yrotation Zrotation
									JOINT LeftHandThumb2
									{
										OFFSET 2.371025 -1.368912 1.368911
										CHANNELS 3 Xrotation Yrotation Zrotation
										JOINT LeftHandThumb3
										{
											OFFSET 2.243378 -1.295212 1.295213
											CHANNELS 3 Xrotation Yrotation Zrotation
											End Site
											{
												OFFSET -0.332611 2.876945 0.020015
											}
										}
									}
								}
								JOINT LeftHandIndex1
								{
									OFFSET 8.568985 -0.641945 3.119977
									CHANNELS 3 Xrotation Yrotation Zrotation
									JOINT LeftHandIndex2
									{
										OFFSET 3.348503 0.000000 0.000000
										CHANNELS 3 Xrotation Yrotation Zrotation
										JOINT LeftHandIndex3
										{
											OFFSET 3.314552 0.000000 0.000000
											CHANNELS 3 Xrotation Yrotation Zrotation
											End Site
											{
												OFFSET -1.032898 3.075485 0.678796
											}
										}
									}
								}
								JOINT LeftHandMiddle1
								{
									OFFSET 8.124603 0.000000 0.000000
									CHANNELS 3 Xrotation Yrotation Zrotation
									JOINT LeftHandMiddle2
									{
										OFFSET 4.166275 0.000000 0.000000
										CHANNELS 3 Xrotation Yrotation Zrotation
										JOINT LeftHandMiddle3
										{
											OFFSET 3.018135 0.000000 0.000000
											CHANNELS 3 Xrotation Yrotation Zrotation
											End Site
											{
												OFFSET -1.032700 2.767982 0.617226
											}
										}
									}
								}
								JOINT LeftHandRing1
								{
									OFFSET 8.571686 -0.031357 -2.884048
									CHANNELS 3 Xrotation Yrotation Zrotation
									JOINT LeftHandRing2
									{
										OFFSET 3.671181 0.000000 0.000000
										CHANNELS 3 Xrotation Yrotation Zrotation
										JOINT LeftHandRing3
										{
											OFFSET 2.728851 0.000000 0.000000
											CHANNELS 3 Xrotation Yrotation Zrotation
											End Site
											{
												OFFSET -0.815796 2.539223 0.577389
											}
										}
									}
								}
								JOINT LeftHandPinky1
								{
									OFFSET 7.854515 -0.675232 -5.213020
									CHANNELS 3 Xrotation Yrotation Zrotation
									JOINT LeftHandPinky2
									{
										OFFSET 3.068596 0.000000 0.000000
										CHANNELS 3 Xrotation Yrotation Zrotation
										JOINT LeftHandPinky3
										{
											OFFSET 2.396042 0.000000 0.000000
											CHANNELS 3 Xrotation Yrotation Zrotation
											End Site
											{
												OFFSET -0.524597 2.267998 0.567429
											}
										}
									}
								}
							}
							JOINT LeftSleeve
							{
								OFFSET 19.684509 -0.200119 0.476146
								CHANNELS 3 Xrotation Yrotation Zrotation
								End Site
								{
									OFFSET -0.031017 25.731133 -0.002868
								}
							}
						}
					}
				}
				JOINT RightShoulder
				{
					OFFSET -4.395900 7.341202 -1.870200
					CHANNELS 3 Xrotation Yrotation Zrotation
					JOINT RightArm
					{
						OFFSET -8.071453 0.936867 -2.181100
						CHANNELS 3 Xrotation Yrotation Zrotation
						JOINT RightForeArm
						{
							OFFSET -31.272011 0.000000 0.000000
							CHANNELS 3 Xrotation Yrotation Zrotation
							JOINT RightHand
							{
								OFFSET -31.771019 0.000000 0.000000
								CHANNELS 3 Xrotation Yrotation Zrotation
								JOINT RightHandThumb1
								{
									OFFSET -2.886520 -2.557808 4.416626
									CHANNELS 3 Xrotation Yrotation Zrotation
									JOINT RightHandThumb2
									{
										OFFSET -2.371056 -1.368927 1.368928
										CHANNELS 3 Xrotation Yrotation Zrotation
										JOINT RightHandThumb3
										{
											OFFSET -2.243362 -1.295204 1.295206
											CHANNELS 3 Xrotation Yrotation Zrotation
											End Site
											{
												OFFSET 0.332642 2.876938 0.020047
											}
										}
									}
								}
								JOINT RightHandIndex1
								{
									OFFSET -8.568993 -0.641953 3.120017
									CHANNELS 3 Xrotation Yrotation Zrotation
									JOINT RightHandIndex2
									{
										OFFSET -3.348518 0.000000 0.000000
										CHANNELS 3 Xrotation Yrotation Zrotation
										JOINT RightHandIndex3
										{
											OFFSET -3.314552 0.000000 0.000000
											CHANNELS 3 Xrotation Yrotation Zrotation
											End Site
											{
												OFFSET 1.032898 3.075478 0.678804
											}
										}
									}
								}
								JOINT RightHandMiddle1
								{
									OFFSET -8.124588 0.000000 0.000000
									CHANNELS 3 Xrotation Yrotation Zrotation
									JOINT RightHandMiddle2
									{
										OFFSET -4.166275 0.000000 0.000000
										CHANNELS 3 Xrotation Yrotation Zrotation
										JOINT RightHandMiddle3
										{
											OFFSET -3.018097 0.000000 0.000000
											CHANNELS 3 Xrotation Yrotation Zrotation
											End Site
											{
												OFFSET 1.032700 2.767937 0.617197
											}
										}
									}
								}
								JOINT RightHandRing1
								{
									OFFSET -8.571747 -0.031349 -2.884061
									CHANNELS 3 Xrotation Yrotation Zrotation
									JOINT RightHandRing2
									{
										OFFSET -3.671204 0.000000 0.000000
										CHANNELS 3 Xrotation Yrotation Zrotation
										JOINT RightHandRing3
										{
											OFFSET -2.728874 0.000000 0.000000
											CHANNELS 3 Xrotation Yrotation Zrotation
											End Site
											{
												OFFSET 0.815804 2.539261 0.577413
											}
										}
									}
								}
								JOINT RightHandPinky1
								{
									OFFSET -7.854561 -0.675247 -5.212970
									CHANNELS 3 Xrotation Yrotation Zrotation
									JOINT RightHandPinky2
									{
										OFFSET -3.068550 0.000000 0.000000
										CHANNELS 3 Xrotation Yrotation Zrotation
										JOINT RightHandPinky3
										{
											OFFSET -2.395981 0.000000 0.000000
											CHANNELS 3 Xrotation Yrotation Zrotation
											End Site
											{
												OFFSET 0.524605 2.267952 0.567413
											}
										}
									}
								}
							}
							JOINT RightSleeve
							{
								OFFSET -19.684753 -0.200165 0.476065
								CHANNELS 3 Xrotation Yrotation Zrotation
								End Site
								{
									OFFSET 0.031342 25.731255 -0.002917
								}
							}
						}
					}
				}
				JOINT Hood
				{
					OFFSET 0.369700 14.447800 -5.317800
					CHANNELS 3 Xrotation Yrotation Zrotation
					JOINT Hood1
					{
						OFFSET 0.001700 -5.553802 -5.895100
						CHANNELS 3 Xrotation Yrotation Zrotation
						JOINT Hood2
						{
							OFFSET -0.000200 -8.380501 0.763600
							CHANNELS 3 Xrotation Yrotation Zrotation
							End Site
							{
								OFFSET 0.000000 8.415215 0.000000
							}
						}
					}
				}
				JOINT Left_Breast
				{
					OFFSET 5.682500 3.120102 3.188800
					CHANNELS 3 Xrotation Yrotation Zrotation
					End Site
					{
						OFFSET 0.000000 10.528564 0.000000
					}
				}
				JOINT Right_Breast
				{
					OFFSET -4.947600 3.120102 3.185900
					CHANNELS 3 Xrotation Yrotation Zrotation
					End Site
					{
						OFFSET 0.000000 10.528564 0.000000
					}
				}
				JOINT Whistle
				{
					OFFSET 0.368200 11.471298 0.095400
					CHANNELS 3 Xrotation Yrotation Zrotation
					JOINT Whistle1
					{
						OFFSET -0.002000 -6.349899 7.479800
						CHANNELS 3 Xrotation Yrotation Zrotation
						JOINT Whistle2
						{
							OFFSET -0.001300 -8.217598 4.717600
							CHANNELS 3 Xrotation Yrotation Zrotation
							End Site
							{
								OFFSET 0.000000 9.475479 0.000000
							}
						}
					}
				}
			}
		}
		JOINT Belly
		{
			OFFSET 0.212400 1.593002 3.163700
			CHANNELS 3 Xrotation Yrotation Zrotation
			End Site
			{
				OFFSET 0.000000 7.496635 0.000000
			}
		}
	}
	JOINT FitGrandmaFacialAnim_Joint
	{
		OFFSET 1.150000 -86.211197 -1.220100
		CHANNELS 3 Xrotation Yrotation Zrotation
		End Site
		{
			OFFSET 0.000000 31.666618 0.000000
		}
	}
}
MOTION
Frames: 4
Frame Time: 0.016667
-108.168289 35.311859 8.857683 3.970131 1.267881 -43.474035 -0.000000 -0.000000 -0.000002 -110.597258 -2.430468 9.075045 29.138803 -1.973925 3.296119 20.332474 -14.705384 38.339508 -0.000001 -0.000001 -0.000002 -0.000000 -0.000001 0.000001 -0.000002 -0.000000 0.000002 -90.745449 -17.611545 -26.595869 128.284900 14.136510 0.453759 -6.082456 29.895284 2.510881 -0.000002 0.000000 -0.000000 -0.000002 -0.000001 0.000002 0.000000 -0.000000 -0.000003 26.966106 -0.641239 -10.890158 4.579534 1.205240 -2.831984 4.490620 1.286412 -2.943286 -2.042143 1.139532 0.937718 -3.993395 18.457114 0.270723 0.000001 -0.000000 -0.000001 0.000001 -0.000000 -0.000001 0.000001 -0.000000 -0.000001 0.000001 -0.000000 -0.000001 0.000001 -0.000000 -0.000001 0.000001 -0.000000 -0.000001 0.000001 -0.000000 -0.000001 0.000001 -0.000000 -0.000001 0.000001 -0.000000 -0.000001 0.000001 -0.000000 -0.000001 0.000001 -0.000000 -0.000001 0.000001 -0.000000 -0.000001 0.000001 -0.000000 -0.000001 0.000001 -0.000000 -0.000001 0.000001 -0.000000 -0.000001 0.000001 -0.000000 -0.000001 0.000001 -0.000000 -0.000001 0.000001 -0.000000 -0.000001 0.000001 -0.000000 -0.000001 -1.373412 -20.809903 -17.189998 -48.855308 35.869100 -5.133217 -0.000022 -67.519555 -0.000031 -8.667136 25.097329 88.863514 -18.674868 -12.715899 12.000665 5.781734 26.667881 7.360269 -0.000003 -0.000000 0.000001 -0.114398 -6.949168 -4.727148 -0.000000 -0.000002 0.000000 0.000000 -0.000000 0.000001 0.098864 -2.457601 0.172476 0.069073 0.897928 -8.797578 0.000000 0.000003 -0.000001 0.130746 1.053424 3.316422 0.099480 1.076181 -10.562547 -0.000000 0.000001 -0.000001 -1.043267 17.733029 -1.993042 0.000107 0.035388 -0.345393 -0.000000 -0.000001 -0.000000 -0.000001 -0.000000 0.000001 0.401295 16.298365 -0.998274 -40.005227 -32.703974 -10.775239 -0.000022 46.721527 0.000023 -50.663871 -2.035186 11.091334 -36.432840 17.171418 -23.039135 7.506136 -18.062835 -3.520391 -0.000000 -0.000001 0.000001 0.815363 4.038544 -1.787530 -0.000003 -0.000005 0.000041 -0.000003 0.000002 0.000002 0.053668 -1.961521 -1.170907 -0.000002 -0.001803 0.022154 -0.000004 0.000003 -0.000001 0.143738 -11.067563 0.271819 0.000000 -0.000010 0.000066 -0.000000 -0.000001 -0.000004 -0.350046 -18.063096 -1.651682 0.001500 -0.118477 1.454586 -0.000002 0.000001 0.000002 0.000002 -0.000001 0.000001 0.000002 0.000003 0.000001 0.000002 0.000003 0.000001 0.000002 0.000003 0.000001 0.000002 0.000003 0.000001 0.000002 0.000003 0.000001 0.000002 0.000003 0.000000 -0.000002 0.000001 0.000000 -0.000002 0.000001 0.000000 -0.000001 0.000000 -0.000001 -0.000000 -0.000000 -0.000002 
-107.586990 36.215073 7.856884 3.739140 1.041416 -44.340796 0.000000 0.000000 -0.000001 -108.192662 -2.116884 9.622751 24.776480 -2.141367 2.944168 24.509171 -13.244835 37.323514 -0.000002 -0.000001 -0.000002 -0.000000 -0.000001 -0.000000 -0.000001 0.000002 0.000000 -89.296479 -19.305467 -24.989565 125.404732 13.582022 0.323402 -6.682474 29.567537 4.148518 0.000001 -0.000000 0.000000 -0.000002 -0.000002 0.000000 0.000000 -0.000000 0.000001 26.466252 -1.295910 -11.467190 4.544296 1.067064 -3.000532 4.469507 1.152588 -3.102260 -2.049334 1.250612 0.923236 -3.430781 19.437303 0.140234 -0.000000 0.000000 0.000002 -0.000000 0.000000 0.000002 -0.000000 0.000000 0.000002 -0.000000 0.000000 0.000002 -0.000000 0.000000 0.000002 -0.000000 0.000000 0.000002 -0.000000 0.000000 0.000002 -0.000000 0.000000 0.000002 -0.000000 0.000000 0.000002 -0.000000 0.000000 0.000002 -0.000000 0.000000 0.000002 -0.000000 0.000000 0.000002 -0.000000 0.000000 0.000002 -0.000000 0.000000 0.000002 -0.000000 0.000000 0.000002 -0.000000 0.000000 0.000002 -0.000000 0.000000 0.000002 -0.000000 0.000000 0.000002 -0.000000 0.000000 0.000002 -0.738557 -20.006908 -16.433083 -50.129251 35.122260 -5.603050 -0.000047 -67.864281 -0.000048 -7.308376 26.200081 89.911688 -18.673720 -12.714337 12.002641 5.779677 26.667118 7.363966 -0.000001 0.000002 0.000004 -0.114864 -6.948387 -4.729061 0.000002 0.000002 0.000001 -0.000002 -0.000000 0.000002 0.098905 -2.457263 0.173009 0.068625 0.895027 -8.768868 0.000000 -0.000001 -0.000002 0.130717 1.054168 3.317231 0.098834 1.072696 -10.528035 0.000002 0.000000 0.000000 -1.043734 17.733739 -1.992095 0.000104 0.035306 -0.344535 -0.000001 0.000004 0.000000 -0.000000 -0.000001 -0.000001 0.572109 17.177622 -1.647720 -40.220689 -36.620544 -13.906585 0.000009 47.792831 -0.000018 -49.852670 -3.546400 10.728615 -36.512573 17.028155 -23.229340 7.528392 -18.244760 -3.533556 0.000001 -0.000002 -0.000001 0.824680 4.106031 -1.666742 0.000002 0.000005 0.000003 -0.000000 0.000001 -0.000002 0.055116 -1.872148 -1.095917 0.000004 -0.001849 0.022641 -0.000001 0.000003 -0.000007 0.147324 -10.931673 0.311332 -0.000007 -0.000000 0.000001 -0.000000 0.000001 -0.000002 -0.366980 -18.002634 -1.683547 0.001716 -0.126629 1.554749 -0.000003 -0.000003 0.000002 -0.000001 -0.000003 -0.000000 0.000003 -0.000001 -0.000000 0.000003 -0.000001 -0.000000 0.000003 -0.000001 -0.000000 0.000003 -0.000001 -0.000000 0.000003 -0.000001 -0.000000 0.000003 -0.000001 -0.000001 -0.000001 0.000001 0.000001 -0.000001 0.000001 0.000001 -0.000002 -0.000001 -0.000000 0.000000 0.000000 -0.000001 
-107.116425 37.230350 6.943776 4.391833 0.889923 -45.153319 -0.000000 0.000000 -0.000001 -108.958292 -2.205672 9.063472 27.357542 -1.067975 2.843717 23.465970 -12.774795 37.819557 -0.000002 -0.000001 -0.000002 -0.000000 -0.000002 0.000000 0.000001 -0.000001 0.000001 -88.215657 -20.957705 -23.415289 122.563182 13.129487 0.241423 -7.839771 29.230126 5.644064 -0.000001 0.000000 -0.000000 -0.000001 -0.000002 -0.000001 0.000001 -0.000000 -0.000001 25.935825 -2.141976 -11.731301 4.488218 0.843237 -3.085115 4.437022 0.931101 -3.173843 -2.023574 1.363339 0.939936 -3.072393 20.274370 0.360033 0.000000 0.000002 0.000002 0.000000 0.000002 0.000002 0.000000 0.000002 0.000002 0.000000 0.000002 0.000002 0.000000 0.000002 0.000002 0.000000 0.000002 0.000002 0.000000 0.000002 0.000002 0.000000 0.000002 0.000002 0.000000 0.000002 0.000002 0.000000 0.000002 0.000002 0.000000 0.000002 0.000002 0.000000 0.000002 0.000002 0.000000 0.000002 0.000002 0.000000 0.000002 0.000002 0.000000 0.000002 0.000002 0.000000 0.000002 0.000002 0.000000 0.000002 0.000002 0.000000 0.000002 0.000002 0.000000 0.000002 0.000002 -0.122291 -19.220878 -15.638235 -51.499432 33.851654 -6.175616 0.000012 -67.064965 0.000035 -6.088701 26.491503 90.582365 -18.672564 -12.713389 12.004486 5.777681 26.666355 7.367559 -0.000000 -0.000004 0.000001 -0.115378 -6.947569 -4.731091 -0.000002 -0.000004 -0.000007 -0.000001 -0.000001 0.000000 0.098950 -2.456937 0.173602 0.068520 0.894343 -8.762171 -0.000002 0.000001 -0.000001 0.130687 1.054917 3.318092 0.098680 1.071878 -10.519947 0.000000 -0.000000 0.000000 -1.044159 17.734272 -1.991117 0.000104 0.035253 -0.343834 0.000000 0.000001 -0.000001 0.000002 0.000003 0.000000 0.605469 17.139982 -2.151161 -40.578485 -39.839312 -15.876093 0.000000 48.762438 0.000003 -48.772479 -4.582365 9.448617 -36.561975 16.901358 -23.361299 7.551329 -18.432398 -3.547111 0.000001 0.000003 -0.000001 0.833844 4.174738 -1.543921 0.000002 0.000011 -0.000023 -0.000004 -0.000000 -0.000000 0.056357 -1.781231 -1.019673 -0.000001 -0.001901 0.023239 -0.000006 -0.000000 -0.000001 0.150804 -10.793500 0.351475 0.000002 -0.000003 0.000002 -0.000000 -0.000003 0.000001 -0.384125 -17.941104 -1.715919 0.001956 -0.134926 1.656600 -0.000001 0.000000 0.000001 0.000001 -0.000002 -0.000001 -0.000003 -0.000002 -0.000000 -0.000003 -0.000002 -0.000000 -0.000003 -0.000002 -0.000000 -0.000003 -0.000002 -0.000000 -0.000003 -0.000002 -0.000000 -0.000003 -0.000002 -0.000000 -0.000003 0.000001 0.000000 -0.000003 0.000001 0.000000 0.000002 0.000000 0.000001 -0.000000 0.000000 -0.000001 
-106.717346 38.417454 6.023726 5.484802 0.746397 -46.232611 0.000000 0.000000 0.000002 -112.047846 -2.734391 8.290479 35.588595 0.456410 2.109760 18.371377 -12.898477 40.350162 -0.000003 -0.000003 -0.000002 0.000000 -0.000004 0.000000 -0.000000 -0.000000 -0.000001 -87.122198 -22.960460 -21.560950 119.392991 12.700949 0.235792 -9.048892 28.915886 6.898897 0.000001 0.000000 -0.000001 -0.000000 -0.000001 -0.000001 -0.000001 -0.000000 -0.000003 25.496487 -3.130773 -11.700310 4.429974 0.562698 -3.087448 4.399098 0.647807 -3.172081 -1.978530 1.469747 0.973268 -2.886828 20.911705 0.815765 -0.000003 0.000001 0.000001 -0.000003 0.000001 0.000001 -0.000003 0.000001 0.000001 -0.000003 0.000001 0.000001 -0.000003 0.000001 0.000001 -0.000003 0.000001 0.000001 -0.000003 0.000001 0.000001 -0.000003 0.000001 0.000001 -0.000003 0.000001 0.000001 -0.000003 0.000001 0.000001 -0.000003 0.000001 0.000001 -0.000003 0.000001 0.000001 -0.000003 0.000001 0.000001 -0.000003 0.000001 0.000001 -0.000003 0.000001 0.000001 -0.000003 0.000001 0.000001 -0.000003 0.000001 0.000001 -0.000003 0.000001 0.000001 -0.000003 0.000001 0.000001 0.465875 -18.467179 -14.809599 -53.117336 32.371033 -6.476306 -0.000029 -65.498215 -0.000008 -5.129245 26.194790 91.077219 -18.671427 -12.712479 12.006317 5.775790 26.665625 7.371038 -0.000001 -0.000001 0.000000 -0.115927 -6.946756 -4.733152 0.000001 -0.000001 -0.000005 0.000001 -0.000002 0.000004 0.098995 -2.456614 0.174217 0.068641 0.895130 -8.769945 -0.000001 -0.000000 0.000000 0.130652 1.055648 3.318959 0.098854 1.072815 -10.529231 0.000000 -0.000000 0.000000 -1.044533 17.734518 -1.990179 0.000106 0.035183 -0.343283 -0.000001 0.000000 -0.000001 -0.000000 0.000002 -0.000000 0.420655 16.309588 -2.316469 -40.918557 -42.271153 -17.103687 0.000003 49.709792 -0.000006 -47.434762 -5.281571 7.361168 -36.582152 16.789746 -23.436771 7.574894 -18.625480 -3.560985 -0.000000 -0.000000 -0.000000 0.842840 4.244607 -1.419235 -0.000014 -0.000011 0.000012 0.000003 -0.000002 0.000001 0.057369 -1.688891 -0.942270 0.000001 -0.001956 0.023979 -0.000000 0.000003 0.000001 0.154171 -10.653138 0.392188 0.000001 -0.000009 0.000066 0.000001 -0.000001 -0.000001 -0.401466 -17.878597 -1.748768 0.002203 -0.143352 1.760076 0.000002 0.000002 0.000001 -0.000002 0.000001 0.000000 -0.000000 0.000000 -0.000000 -0.000000 0.000000 -0.000000 -0.000000 0.000000 -0.000000 -0.000000 0.000000 -0.000000 -0.000000 0.000000 -0.000000 -0.000000 0.000000 -0.000001 -0.000004 0.000001 0.000000 -0.000004 0.000001 0.000000 -0.000000 -0.000000 -0.000000 0.000000 0.000000 0.000002 
